<svg width="88" height="61" viewBox="0 0 88 61" fill="none" xmlns="http://www.w3.org/2000/svg">
<g clip-path="url(#clip0_26_5)">
<path d="M73.6975 48.8835H75.7099C76.4316 48.8835 76.9585 49.0352 77.2905 49.3386C77.5783 49.6067 77.7222 49.9936 77.7222 50.4992V50.5717C77.7222 51.0773 77.5761 51.4664 77.2839 51.739C76.9474 52.0511 76.4227 52.2072 75.7099 52.2072H72.3293V47.3008H73.6975V48.8835ZM75.6036 51.1257C75.8338 51.1257 76.0065 51.0751 76.1216 50.974C76.2412 50.8729 76.301 50.7344 76.301 50.5586V50.5124C76.301 50.3409 76.2412 50.2068 76.1216 50.1101C76.0065 50.0134 75.8338 49.965 75.6036 49.965H73.6975V51.1257H75.6036ZM79.9339 47.3008V52.2072H78.5657V47.3008H79.9339Z" fill="#0E1036"/>
<path d="M68.138 52.2072V48.4219H66.2252V47.3008H71.4122V48.4219H69.4995V52.2072H68.138Z" fill="#0E1036"/>
<path d="M63.9427 52.2072V50.2354H61.1865V52.2072H59.8184V47.3008H61.1865V49.1209H63.9427V47.3008H65.3109V52.2072H63.9427Z" fill="#0E1036"/>
<path d="M54.1625 47.3008H58.6855V48.3692H55.5108V49.1671H58.5858V50.275H55.5108V51.1257H58.7253V52.2072H54.1625V47.3008Z" fill="#0E1036"/>
<path d="M51.5741 52.2072V50.2354H48.8179V52.2072H47.4497V47.3008H48.8179V49.1209H51.5741V47.3008H52.9422V52.2072H51.5741Z" fill="#0E1036"/>
<path d="M43.4802 47.2217C44.0292 47.2217 44.4986 47.2942 44.8882 47.4393C45.2779 47.58 45.5922 47.7756 45.8313 48.0262C46.0438 48.2504 46.1988 48.5032 46.2962 48.7846C46.3981 49.066 46.449 49.3517 46.449 49.6419V49.8397C46.449 50.1255 46.3981 50.4113 46.2962 50.697C46.1988 50.9784 46.0438 51.2312 45.8313 51.4554C45.5878 51.7148 45.2712 51.9192 44.8816 52.0687C44.4919 52.2138 44.0248 52.2863 43.4802 52.2863H43.188C42.4751 52.2863 41.8774 52.1523 41.3948 51.8841C40.9742 51.6511 40.6686 51.3367 40.4783 50.941C40.3056 50.6025 40.2192 50.2354 40.2192 49.8397V49.6419C40.2192 49.2462 40.3056 48.8791 40.4783 48.5406C40.6731 48.1449 40.9786 47.835 41.3948 47.6108C41.873 47.3514 42.4707 47.2217 43.188 47.2217H43.4802ZM45.0277 49.6947C45.0277 49.3254 44.9192 49.0242 44.7023 48.7912C44.4233 48.4923 43.9673 48.3428 43.3341 48.3428C42.7142 48.3428 42.2604 48.4923 41.9726 48.7912C41.7512 49.0242 41.6405 49.3254 41.6405 49.6947V49.787C41.6405 49.9497 41.6671 50.1101 41.7202 50.2684C41.7734 50.4267 41.8597 50.5674 41.9792 50.6904C42.2715 51.0026 42.7231 51.1587 43.3341 51.1587C43.9628 51.1587 44.4189 51.0026 44.7023 50.6904C44.9192 50.4574 45.0277 50.1563 45.0277 49.787V49.6947Z" fill="#0E1036"/>
<path d="M34.0953 52.2072V47.3008H39.2159V52.2072H37.8478V48.3823H35.4635V52.2072H34.0953Z" fill="#0E1036"/>
<path d="M26.1501 52.2072V47.3008H27.9699L29.544 50.6245L31.1645 47.3008H32.8714V52.2072H31.5364V48.9956L30.0354 52.2072H28.9661L27.4652 48.9956V52.2072H26.1501Z" fill="#0E1036"/>
<path d="M22.1808 47.2217C22.7298 47.2217 23.1991 47.2942 23.5888 47.4393C23.9784 47.58 24.2928 47.7756 24.5319 48.0262C24.7444 48.2504 24.8994 48.5032 24.9968 48.7846C25.0986 49.066 25.1495 49.3517 25.1495 49.6419V49.8397C25.1495 50.1255 25.0986 50.4113 24.9968 50.697C24.8994 50.9784 24.7444 51.2312 24.5319 51.4554C24.2884 51.7148 23.9718 51.9192 23.5821 52.0687C23.1925 52.2138 22.7254 52.2863 22.1808 52.2863H21.8886C21.1757 52.2863 20.578 52.1523 20.0953 51.8841C19.6747 51.6511 19.3692 51.3367 19.1788 50.941C19.0061 50.6025 18.9198 50.2354 18.9198 49.8397V49.6419C18.9198 49.2462 19.0061 48.8791 19.1788 48.5406C19.3736 48.1449 19.6791 47.835 20.0953 47.6108C20.5735 47.3514 21.1713 47.2217 21.8886 47.2217H22.1808ZM23.7283 49.6947C23.7283 49.3254 23.6198 49.0242 23.4028 48.7912C23.1239 48.4923 22.6678 48.3428 22.0347 48.3428C21.4148 48.3428 20.961 48.4923 20.6732 48.7912C20.4518 49.0242 20.3411 49.3254 20.3411 49.6947V49.787C20.3411 49.9497 20.3676 50.1101 20.4208 50.2684C20.4739 50.4267 20.5603 50.5674 20.6798 50.6904C20.972 51.0026 21.4236 51.1587 22.0347 51.1587C22.6634 51.1587 23.1194 51.0026 23.4028 50.6904C23.6198 50.4574 23.7283 50.1563 23.7283 49.787V49.6947Z" fill="#0E1036"/>
<path d="M17.0864 52.2072L14.7087 49.8991V52.2072H13.3406V47.3008H14.7087V49.3188L17.02 47.3008H18.76L16.1566 49.5496L18.873 52.2072H17.0864Z" fill="#0E1036"/>
<path d="M54.7488 60.4504V57.1531L51.8597 60.4504H50.4916V55.5441H51.8597V58.8414L54.7488 55.5441H56.1169V60.4504H54.7488Z" fill="#0E1036"/>
<path d="M47.8997 60.4504V57.1531L45.0106 60.4504H43.6425V55.5441H45.0106V58.8414L47.8997 55.5441H49.2678V60.4504H47.8997Z" fill="#0E1036"/>
<path d="M38.7456 60.4504V55.5441H42.8633V56.6256H40.1138V60.4504H38.7456Z" fill="#0E1036"/>
<path d="M33.7641 58.8809V60.4504H32.396V55.5441H35.7433C36.4739 55.5441 37.0096 55.6957 37.3506 55.9991C37.6428 56.2673 37.7889 56.6586 37.7889 57.1729V57.2455C37.7889 57.7555 37.6406 58.1445 37.3439 58.4127C37.003 58.7249 36.4695 58.8809 35.7433 58.8809H33.7641ZM33.7641 57.7862H35.6437C36.1263 57.7862 36.3676 57.5994 36.3676 57.2257V57.1993C36.3676 57.0235 36.3078 56.8872 36.1883 56.7904C36.0687 56.6893 35.8872 56.6388 35.6437 56.6388H33.7641V57.7862Z" fill="#0E1036"/>
<path d="M26.7404 55.5441H31.2632V56.6124H28.0886V57.4103H31.1636V58.5182H28.0886V59.3689H31.3031V60.4504H26.7404V55.5441Z" fill="#0E1036"/>
<path d="M24.1518 60.4504V58.4787H21.3956V60.4504H20.0275V55.5441H21.3956V57.3642H24.1518V55.5441H25.52V60.4504H24.1518Z" fill="#0E1036"/>
<path d="M19.0258 58.083C19.0258 58.36 18.9793 58.6391 18.8863 58.9205C18.7933 59.2019 18.6472 59.4547 18.448 59.6789C18.2133 59.9383 17.9078 60.1449 17.5314 60.2988C17.1551 60.4483 16.7013 60.523 16.1699 60.523H15.8644C14.9036 60.523 14.1819 60.3054 13.6993 59.8701C13.4956 59.6899 13.3451 59.4854 13.2477 59.2568C13.1503 59.0282 13.1016 58.793 13.1016 58.5512V58.5314H14.5096C14.514 58.593 14.5361 58.6721 14.576 58.7688C14.6158 58.8612 14.6822 58.9513 14.7752 59.0392C15.0365 59.2986 15.4482 59.4283 16.0105 59.4283C16.4489 59.4283 16.8053 59.3316 17.0798 59.1381C17.3145 58.9711 17.4761 58.7534 17.5647 58.4853H15.3132V57.4433H17.5647C17.4761 57.1795 17.3145 56.9707 17.0798 56.8168C16.8142 56.6454 16.46 56.5596 16.0172 56.5596C15.4637 56.5596 15.052 56.6849 14.7819 56.9355C14.6756 57.0366 14.6048 57.1334 14.5693 57.2257L14.5096 57.4235H13.1016V57.4103C13.1016 57.1641 13.1503 56.9267 13.2477 56.6981C13.3451 56.4695 13.4978 56.2673 13.7059 56.0914C14.1886 55.6782 14.9081 55.4715 15.8644 55.4715H16.1699C16.7013 55.4715 17.1551 55.5463 17.5314 55.6957C17.9122 55.8408 18.2177 56.0409 18.448 56.2959C18.6472 56.5201 18.7933 56.7729 18.8863 57.0542C18.9793 57.3312 19.0258 57.6082 19.0258 57.8852V58.083Z" fill="#0E1036"/>
<path d="M88.0001 22.4067C88.0001 24.6666 87.6176 26.9444 86.8533 29.2402C86.089 31.536 84.888 33.5986 83.2497 35.428C81.3204 37.5444 78.8088 39.2304 75.7149 40.4859C72.6205 41.7055 68.8897 42.3153 64.5212 42.3153H62.0096C54.1108 42.3153 48.1775 40.5397 44.2098 36.9884C42.5353 35.5177 41.2977 33.8497 40.4969 31.9843C39.6961 30.1191 39.2957 28.1999 39.2957 26.227V26.0656H50.8711C50.9076 26.5678 51.0895 27.2135 51.4171 28.0026C51.7448 28.756 52.2908 29.4913 53.0552 30.2087C55.2028 32.3252 58.5881 33.3833 63.2112 33.3833C66.8147 33.3833 69.7448 32.5942 72.0018 31.0158C73.9311 29.6527 75.26 27.8771 75.9878 25.6889H57.4779V17.1874H75.9878C75.26 15.0351 73.9311 13.3312 72.0018 12.0757C69.8178 10.6768 66.9055 9.97729 63.2654 9.97729C58.7154 9.97729 55.3303 10.9996 53.1098 13.0443C52.2362 13.8693 51.6537 14.6585 51.3626 15.4118L50.8711 17.026H39.2957V16.9184C39.2957 14.9096 39.6961 12.9725 40.4969 11.1072C41.2977 9.24188 42.5535 7.59181 44.2644 6.15699C48.2321 2.78506 54.1472 1.0991 62.0096 1.0991H64.5212C68.8897 1.0991 72.6205 1.70891 75.7149 2.92854C78.8453 4.1123 81.3569 5.74444 83.2497 7.82498C84.888 9.65443 86.089 11.717 86.8533 14.0128C87.6176 16.2727 88.0001 18.5326 88.0001 20.7925V22.4067Z" fill="#342F2C" fill-opacity="0.6"/>
<path fill-rule="evenodd" clip-rule="evenodd" d="M0 0L19.6478 19.2342H14.1132L24.6289 38.4685L4.98113 19.2342H10.5157L0 0Z" fill="#F6CC79"/>
<path fill-rule="evenodd" clip-rule="evenodd" d="M13.3937 13.1118L0 0L10.5157 19.2342H4.98113L13.3937 27.4697V42.3154H24.795V23.0811L44.6088 42.3154H59.4969L36.8604 20.1685L58.556 1.42888H44.0553L24.795 18.2451V1.42888H13.3937V13.1118ZM13.3937 13.1118V27.4697L24.6289 38.4685L14.1132 19.2342H19.6478L13.3937 13.1118Z" fill="#0E1036"/>
</g>
<defs>
<clipPath id="clip0_26_5">
<rect width="88" height="61" fill="white"/>
</clipPath>
</defs>
</svg>
