<svg width="50" height="50" viewBox="0 0 50 50" fill="none" xmlns="http://www.w3.org/2000/svg">
<g clip-path="url(#clip0_19_2)">
<path d="M25 0C11.193 0 0 11.193 0 25C0 38.807 11.193 50 25 50C38.807 50 50 38.807 50 25C50 11.193 38.807 0 25 0ZM39.9553 14.642C39.9664 14.642 39.9761 14.6481 39.9872 14.6486L26.0368 28.599C25.5719 29.0639 24.7485 29.0649 24.2836 28.598L10.3276 14.642H39.9553ZM9.35472 15.5753C9.35472 15.5677 9.35878 15.5616 9.35878 15.5545L18.8418 25.0375L9.35472 34.5246V15.5753ZM10.2881 35.6186C10.245 35.6186 10.208 35.5999 10.1664 35.5943L19.7822 25.9785L23.3427 29.539C23.8269 30.0231 24.4722 30.2893 25.1602 30.2893C25.8487 30.2893 26.493 30.0221 26.9772 29.539L30.4226 26.0935L39.9477 35.6186H10.2881ZM40.8886 34.6782L31.3636 25.1531L40.8886 15.6285V34.6782Z" fill="#E0643F"/>
</g>
<defs>
<clipPath id="clip0_19_2">
<rect width="50" height="50" fill="white"/>
</clipPath>
</defs>
</svg>
