<svg width="50" height="50" viewBox="0 0 50 50" fill="none" xmlns="http://www.w3.org/2000/svg">
<g clip-path="url(#clip0_19_4)">
<path d="M25 0C11.193 0 0 11.193 0 25C0 38.807 11.193 50 25 50C38.807 50 50 38.807 50 25C50 11.193 38.807 0 25 0ZM39.063 11.6194L33.4655 37.9071C33.3605 38.4232 32.7724 38.6762 32.3258 38.3963L23.7179 32.6873L19.1901 36.9008C18.787 37.2455 18.1629 37.0777 17.9875 36.5768L15.0394 27.2789L7.12301 24.0322C6.51566 23.7554 6.52427 22.7881 7.14684 22.5462L38.0501 10.7656C38.6067 10.5497 39.1816 11.0343 39.063 11.6194Z" fill="#E0643F"/>
<path d="M18.9386 33.8194L19.4415 29.0396L33.4026 15.3928L16.5487 26.4611L18.9386 33.8194Z" fill="#E0643F"/>
</g>
<defs>
<clipPath id="clip0_19_4">
<rect width="50" height="50" fill="white"/>
</clipPath>
</defs>
</svg>
